Coordinates
version=1
nRows=14
nColumns=24
inDegrees=yes

Units are S.I. units (second, meters, Newtons, ...)
Angles are in degrees.

endheader
time	pelvis_tilt	pelvis_list	pelvis_rotation	pelvis_tx	pelvis_ty	pelvis_tz	hip_flexion_r	hip_adduction_r	hip_rotation_r	knee_angle_r	ankle_angle_r	subtalar_angle_r	mtp_angle_r	hip_flexion_l	hip_adduction_l	hip_rotation_l	knee_angle_l	ankle_angle_l	subtalar_angle_l	mtp_angle_l	lumbar_extension	lumbar_bending	lumbar_rotation
      3.47000000	     -0.88418963	     -3.43302245	     -6.05761443	     -0.99459462	      0.91165554	      0.26679006	     -9.56947922	      9.07046039	      7.71215420	    -23.65658444	     25.53381742	     -4.07967591	      0.00000000	     28.98560083	     -2.17290608	     -6.81889399	     -9.80542981	     10.15820838	     -8.93996549	      0.00000000	     -9.95452902	      2.59255190	     -0.42481705
      3.47500000	     -0.91440897	     -3.24304295	     -6.06218273	     -0.98691495	      0.91059378	      0.26663677	     -9.58806073	      8.74367298	      7.30280721	    -24.46939103	     25.46282104	     -3.34951496	      0.00000000	     29.19991255	     -1.92787673	     -6.71375817	    -10.78194499	      9.80601160	     -9.40007182	      0.00000000	     -9.81673698	      2.30939064	     -0.51022988
      3.48000000	     -0.95126283	     -3.00285748	     -6.05876304	     -0.97918256	      0.90958754	      0.26647204	     -9.55807712	      8.36058543	      6.87381510	    -25.34526563	     25.32547499	     -2.61132410	      0.00000000	     29.42086755	     -1.62622112	     -6.58514249	    -11.78534625	      9.34121761	     -9.91883312	      0.00000000	     -9.65758926	      1.96802987	     -0.61558772
      3.48500000	     -0.99823490	     -2.71753997	     -6.03974283	     -0.97146421	      0.90864576	      0.26626581	     -9.45540068	      7.92413638	      6.40137293	    -26.31463082	     25.12033320	     -1.83167198	      0.00000000	     29.65294838	     -1.26776275	     -6.39981773	    -12.79602639	      8.74430911	    -10.48463900	      0.00000000	     -9.48752221	      1.57370911	     -0.74917589
      3.49000000	     -1.05898577	     -2.37281072	     -6.00728690	     -0.96374590	      0.90778286	      0.26602992	     -9.27947712	      7.41892685	      5.89153693	    -27.36684449	     24.83604379	     -1.02593321	      0.00000000	     29.90382543	     -0.84199176	     -6.18421314	    -13.81303623	      8.04003059	    -11.07537712	      0.00000000	     -9.29600730	      1.11116514	     -0.91214313
      3.49500000	     -1.12977671	     -1.98069637	     -5.96197074	     -0.95606438	      0.90699997	      0.26576286	     -9.02765370	      6.85510567	      5.34241880	    -28.51132437	     24.46271201	     -0.18702097	      0.00000000	     30.17709299	     -0.35926792	     -5.92883313	    -14.84446379	      7.27505513	    -11.68894726	      0.00000000	     -9.09635356	      0.59352511	     -1.10182453
      3.50000000	     -1.21066580	     -1.57526861	     -5.90330452	     -0.94848388	      0.90628666	      0.26539865	     -8.68924859	      6.25632856	      4.73064527	    -29.76374537	     24.00811919	      0.71656284	      0.00000000	     30.47963106	      0.16060816	     -5.57196652	    -15.89770838	      6.44296545	    -12.41098103	      0.00000000	     -8.90654366	      0.07137112	     -1.29773908
      3.50500000	     -1.30214463	     -1.08398948	     -5.83532726	     -0.94084252	      0.90567503	      0.26508134	     -8.28777829	      5.56739837	      4.12903509	    -31.08804361	     23.43177813	      1.58529683	      0.00000000	     30.79925138	      0.75730972	     -5.29909286	    -16.96663424	      5.66815718	    -13.00010691	      0.00000000	     -8.68473387	     -0.56327207	     -1.52326116
      3.51000000	     -1.39367498	     -0.54239330	     -5.76425360	     -0.93316871	      0.90513770	      0.26477317	     -7.83169053	      4.81668920	      3.53658657	    -32.49162657	     22.74509638	      2.43228139	      0.00000000	     31.12865877	      1.40258514	     -5.05592523	    -18.06554471	      4.99437511	    -13.51506902	      0.00000000	     -8.45283304	     -1.26204830	     -1.79018630
      3.51500000	     -1.49439292	     -0.03190239	     -5.68227387	     -0.92560672	      0.90469423	      0.26438175	     -7.29767625	      4.07500479	      2.91969004	    -33.98498244	     21.90664687	      3.33378305	      0.00000000	     31.47172879	      2.04007398	     -4.72998682	    -19.16949944	      4.29703223	    -14.11593810	      0.00000000	     -8.23971331	     -1.91491377	     -2.00045219
      3.52000000	     -1.55731373	      0.53173572	     -5.59274505	     -0.91789638	      0.90436873	      0.26408431	     -6.77480344	      3.27834698	      2.34685827	    -35.51751962	     20.91506124	      4.13709860	      0.00000000	     31.76517436	      2.70853163	     -4.57266985	    -20.28390196	      3.85057751	    -14.45947041	      0.00000000	     -8.04268599	     -2.65163183	     -2.28195679
      3.52500000	     -1.63368404	      1.06496739	     -5.53534809	     -0.91031722	      0.90402693	      0.26369421	     -6.15820497	      2.47560547	      1.77657346	    -37.15629607	     19.85981060	      4.99047910	      0.00000000	     32.07547754	      3.36038453	     -4.30946930	    -21.40790607	      3.42500411	    -14.96784386	      0.00000000	     -7.86055269	     -3.33374558	     -2.49879251
      3.53000000	     -1.67011407	      1.58746323	     -5.45194715	     -0.90262080	      0.90386476	      0.26334513	     -5.56853397	      1.68602464	      1.25047989	    -38.79651732	     18.57523173	      5.74740844	      0.00000000	     32.29820400	      3.99614043	     -4.16382236	    -22.47017275	      3.17032180	    -15.28829737	      0.00000000	     -7.71090561	     -4.01819194	     -2.72772893
      3.53500000	     -1.73207350	      2.07849146	     -5.41099554	     -0.89505711	      0.90365903	      0.26290225	     -4.87417844	      0.90186913	      0.78264749	    -40.53022240	     17.22987788	      6.50006566	      0.00000000	     32.52623637	      4.61000858	     -3.94064576	    -23.49082996	      2.92772624	    -15.79745438	      0.00000000	     -7.55795846	     -4.63977032	     -2.89628656
